<svg id="Layer_1" data-name="Layer 1" xmlns="http://www.w3.org/2000/svg" viewBox="0 0 1660 522"><defs><style>.cls-1{opacity:0.3;}.cls-2{fill:#39d5c5;}.cls-3{fill:#0098f7;}.cls-4{fill:#6a72e4;}.cls-5{fill:#ffe1a3;}.cls-6{fill:#ff8a7e;}</style></defs><title>editor-bg</title><g class="cls-1"><rect class="cls-2" x="110" y="200" width="166" height="20" rx="10" ry="10"/></g><g class="cls-1"><rect class="cls-3" x="451" width="404" height="20" rx="10" ry="10"/></g><g class="cls-1"><rect class="cls-4" x="736" y="100" width="200" height="20" rx="10" ry="10"/></g><g class="cls-1"><rect class="cls-5" x="836" y="500" width="300" height="20" rx="10" ry="10"/></g><g class="cls-1"><rect class="cls-6" y="401" width="300" height="20" rx="10" ry="10"/></g><g class="cls-1"><rect class="cls-4" x="1333" width="218" height="20" rx="10" ry="10"/></g><g class="cls-1"><rect class="cls-2" x="1184" width="20" height="20" rx="10" ry="10"/></g><g class="cls-1"><rect class="cls-3" x="1322" y="200" width="80" height="20" rx="10" ry="10"/></g><g class="cls-1"><rect class="cls-3" x="245" y="300" width="404" height="20" rx="10" ry="10"/></g><g class="cls-1"><rect class="cls-5" x="783" y="200" width="310" height="20" rx="10" ry="10"/></g><g class="cls-1"><rect class="cls-3" x="424" y="200" width="20" height="20" rx="10" ry="10"/></g><g class="cls-1"><rect class="cls-6" x="576.5" y="200" width="20" height="20" rx="10" ry="10"/></g><g class="cls-1"><rect class="cls-3" x="622" y="401" width="404" height="20" rx="10" ry="10"/></g><g class="cls-1"><rect class="cls-2" x="524" y="400" width="20" height="20" rx="10" ry="10"/></g><g class="cls-1"><rect class="cls-3" x="384" y="401" width="20" height="20" rx="10" ry="10"/></g><g class="cls-1"><rect class="cls-4" x="1442" y="297" width="218" height="20" rx="10" ry="10"/></g><g class="cls-1"><rect class="cls-2" x="516" y="502" width="100" height="20" rx="10" ry="10"/></g><g class="cls-1"><rect class="cls-3" x="384" y="100" width="80" height="20" rx="10" ry="10"/></g><g class="cls-1"><rect class="cls-6" x="1127" y="397" width="20" height="20" rx="10" ry="10"/></g><g class="cls-1"><rect class="cls-2" x="1276" y="99" width="166" height="20" rx="10" ry="10"/></g></svg>